<svg fill="none" xmlns="http://www.w3.org/2000/svg" viewBox="0 0 231 65"><path d="M28.54 55.63c.96.03 1.06 1.13.19 1.35-8.76 2.18-18.89-.01-27.96.84-.9.08-1.06-1.18-.19-1.31 8.91-1.26 18.95-1.16 27.96-.88zm24.38-.09c-3.24.13-8.06-.56-11.12.6-.12 0-.23.06-.31.13-.08.06-.11.15-.12.23v.08c0 .09.04.17.11.24.07.08.18.14.3.15 3.03 1.27 7.89.67 11.1.67 5.88-.01 12.3-.41 17.92-1.81.97-.24.9-1.57-.22-1.54-5.9.16-11.75 1.01-17.66 1.25zm44.7-2.29c-4.51.2-9.06.15-13.57-.04-1.22-.05-1.16 1.38-.03 1.52 7.9 1.03 17.72 1.61 25.46-.22 1.07-.25.82-1.43-.22-1.54-3.84-.41-7.78.11-11.64.28zm21.72.01c-1.05.06-1.1 1.29-.03 1.37 7.26.49 15.81.27 22.96-.83.91-.14.97-1.39.03-1.54-7.23-1.2-15.65.58-22.96 1zm38.66-.05c-1.18.04-1.22 1.45-.03 1.52 8.94.54 17.93.16 26.89.19 1.76.01 1.81-2.23.05-2.26-8.97-.2-17.98.24-26.91.55zM26.032 4.4c-.832-.192-1.536.128-2.304.256-2.112.384-4.032 1.216-5.632 2.688-.96.96-1.856 1.856-2.368 3.2-.704 1.856-.896 3.712-.896 5.632 0 1.152-.064 2.24-.064 3.392-.064.896-.064.896-.96 1.024l-1.536.192c-.832.128-.96.32-.768 1.088.064.256.32.576 0 .832-.448.32-.512.704-.192 1.152.384.448.896.512 1.344.192.576-.384 1.152-.384 1.792-.384.192.512.128.896.128 1.28 0 .896-.128 1.792.064 2.624.448 2.496-.064 4.928-.192 7.296-.128 2.048-.064 4.032 0 6.016s.192 3.968.32 5.952c.064 1.408.32 2.688 1.024 3.904.384.576.768 1.088.96 1.728.192.512.576 1.088 1.152 1.152.64.064 1.152.32 1.664.896.64-1.408 1.472-3.008 1.216-4.544.32 0 .384 1.152.768 1.024 0-.064.256-.448.256-.512 0-3.84-.128-7.68-.192-11.52-.064-2.496-.32-4.992-.448-7.424-.192-2.88.192-5.76.192-8.64 0-.192.128-.576.64-.768.576-.256 1.152-.576 1.792-.576 1.536-.128 2.176-1.408 2.752-2.624-1.664-.192-3.072.896-4.736.576 0-1.088-.128-2.24.128-3.2.448-1.984.768-4.032 1.472-5.952.512-1.216 1.28-1.984 2.496-2.368.576-.192 1.216-.704 1.792-.832.512-.128-.192-1.024-.448-1.152-.64-.256-1.152-1.216-2.112-.512-.064.064-.192.064-.32.064-1.152-.064-2.176.384-3.136 1.024-.192.128-.384.384-.64.256.384-.448.64-1.024 1.216-1.28.256-.128.512-.32.896-.256 1.152.064 2.304-.256 3.456-.512-.192-.32-.384-.32-.576-.384z" fill="#000"/><path d="M44.377 19.504c-.577-.256-.705.448-1.153.576-1.215-.896-1.407-.896-2.752-.384-.511.192-.96.384-1.535.384-.448 0-.512.256-.512.576.32 2.24.064 4.416.064 6.592-.064 3.328.256 6.72.064 10.048 0 .448 0 .896-.32 1.216-.64.832-1.28 1.792-2.048 2.56-.64.64-2.049.96-2.497.512-.64-.576-1.28-1.28-1.216-2.176.064-.96-.064-1.92-.128-2.816-.063-1.408.192-3.072.128-4.48-.064-1.472.064-3.008.128-4.544.192-2.304.448-4.672-1.344-6.656-.576-.64-1.215-1.28-2.047-1.344-.896-.128-1.857.128-2.817.128-.767 0-.831.768-.767 1.472.256 1.984-.384 3.904-.384 5.952 0 1.92-.384 3.904.256 5.824.192.512.256 1.024.256 1.6-.32 3.008 0 5.952.767 8.896.128.576.32 1.088.768 1.472 1.024.896 2.113 1.6 3.584 1.856 1.536.256 2.88-.064 3.904-1.152a38.14 38.14 0 002.176-2.368c.385-.448.64-1.152 1.409-1.152.064.128.128.256.128.32.192 1.856.704 2.24 1.216 2.88.448.512.895.832 1.407 1.088 1.088.448 1.792.512 2.88 1.024.64 0 1.857.128 2.433-.448.512-.512.192-.256.832-.576.64-.256 1.28-.448 1.663-1.088.128-.192.32-.192.512-.192.384 0 .896-.512 1.216-.704 1.28-1.472 1.792-.704 3.136-2.304.449-.576 1.409-1.024.897-2.048-.576 0-1.024.32-1.408.576-2.433 1.6-3.457 2.112-5.825 3.84-.32.256-.447.192-.703.256-1.152.576-1.728-.32-1.728-1.792s.127-3.008.063-4.48c-.063-2.496.129-4.928.065-7.424 0-.576-.129-1.216.063-1.792.32-1.088.129-2.112-.063-3.2-.129-.64-.257-1.216-.32-1.856-.193-1.152-.065-2.304-.129-3.456 0-.448.129-1.024-.32-1.216zm-11.84 24.96c-.512.384-.96.704-1.793.448.96-.832.96-.832 1.792-.448z" fill="#000"/><path d="M57.885 18.928c-.832.384-1.792.576-2.688.768-1.153.192-2.24.192-3.265.96a1.217 1.217 0 01-.704.448c-1.727.384-2.367 1.664-2.816 3.136-.64 1.92-.32 4.288 1.089 5.888 1.343 1.344 3.008 2.88 4.032 4.48 1.087 1.664 1.407 4.032 1.215 5.568-.127.832-.767 1.472-1.471 2.112-.64.192-1.92.192-2.688-.256-1.216-.192-1.856-.832-2.432-1.088-.64-.256-1.728-1.408-1.472-.512.511.576 1.663 1.28 1.727 1.856.065.448-.831-.448-1.343-.512-.193 0-.129.128-.385.064-.511-.128.449.576.513.896.063.192-.833-.384-.257.576.513.768-.063.704 1.665 1.728 1.856 1.024 1.536.704 1.216.768-.512.128 1.215.512 1.92.704 1.023.32 2.688.384 3.328.128.191-.064.511-.128.767-.256 1.28-.576 3.648-1.088 4.608-2.944.704-1.28 1.6-2.56 1.92-3.712.32-1.728-.447-5.568-1.343-7.104-.64-1.088-2.177-2.88-3.584-3.968-.64-.448-2.496-2.24-2.624-2.944 0-.384 0-.832-.065-1.152-.32-1.216.96-1.408 1.473-2.176.384-.576 1.152-.704 1.856-.896a1.94 1.94 0 00.64-.32c.895-.384 1.663-.96 1.215-.96-1.215 0 .768-1.152.512-1.152-.896 0-1.791-.512-2.56-.128zm-6.145 10.88l1.152 1.024 1.6 2.048c.449.576.705.832.705.832.127.256 0 .576 0 .832-.32 0-.705-.512-1.025-.832l-1.215-1.856c-.257-.448-1.665-2.112-1.217-2.048zM66.22.752c-1.151.192-2.111.704-2.752 1.6-1.472 2.048-1.152 3.712.96 4.8.576.256 1.28-.128 1.728.32 1.024.192 1.472-.704 2.112-1.152 1.409-1.152 1.025-2.304-.32-3.52-.511-.448-.767-.64-.703-1.216 0-.704-.257-.896-1.025-.832zm.448 18.368c-.768.064-1.536.32-2.112.832-.32.32-.831.768-.767 1.216.32 1.344-.129 2.624 0 3.904.127 1.792 0 3.584-.193 5.376-.191 2.048-.255 4.16-.32 6.208-.064 1.728-.128 3.456.064 5.12.192 1.28.256 2.56 1.216 3.584.257.192.704.128 1.025.384.575.512 1.343.576 1.855.832.32.192.896.384 1.152.32.257-.064.385-.32.64-.448.193 0 .385.064.577.064.32 0 .64-.064.895-.192l1.216-.384c.385-.128.833-.256 1.153-.512.255-.192.447-.512.703-.832.32-.32.768-.384 1.152-.704.32-.256.768-.768 1.152-.768.577-.064.833-.128 1.153-.704.64-1.024 1.151-1.408 2.047-2.112.577-.448 1.089-.896 1.537-1.536-.832-.64-1.472-.192-2.049.256-.255.256-.575.448-.96.64-.64.192-1.856 1.152-2.431 1.536-1.729 1.216-1.985 1.152-3.329 1.792-1.215.512-.895-.448-1.023-1.728-.064-1.152-.257-2.304-.32-3.456-.192-1.664-.384-3.264-.448-4.928-.064-2.688 0-5.376-.32-8.064-.129-.64-.129-1.28.063-1.92.129-.32.129-.64.065-.96 0-.832-.193-.896-.897-.384-.192-.128-.192-.384-.255-.576-.32-1.28-.897-1.856-2.24-1.856z" fill="#000"/><path d="M81.236 18.736c-.449.256-.897.576-1.409.768-2.367.96-3.584 2.816-4.415 5.184-.705 2.24-1.28 4.544-1.28 6.912-.129 2.496-.257 4.928.32 7.424.511 1.856 1.407 3.52 2.752 4.8 1.152 1.024 2.431 1.984 3.776 2.752.895.512 1.727.512 2.56.064 1.023-.512 2.175-.832 3.2-1.472.256-.128.64-.384 1.023-.192-.128.576-1.663.512-.64 1.6.832-.32 1.728-.512 2.24-1.344.64-1.088 1.216-2.048 1.793-3.136.703-1.216 1.215-2.432 1.151-3.904 0-.512.129-1.152.385-1.6.704-1.152.512-2.368.384-3.584-.192-1.344-.512-2.688-.512-4.032-.064-.64-.128-1.28-.256-1.92-.385-1.152-.449-2.432-1.28-3.456-.769-.896-1.6-1.664-2.049-2.752 0-.128-.127-.256-.192-.256-1.472-.96-2.944-1.792-4.8-1.6-.127.064-.383 0-.383.192-.129 1.024-.769.576-1.28.512 0-.384.383-.576.383-.896-.511-.32-.96-.32-1.471-.064zm3.2 3.008c.64-.384 1.215-.128 1.791.32 1.088.832 1.6 2.048 1.664 3.392l.128 5.376c-.064 2.624-.192 5.248-.448 7.872-.192 1.728-.703 3.392-1.92 4.8-.127.32-.511.64-1.087.768-.256-.64-.448-1.344-1.344-1.024-.385.128-.448-.192-.576-.448-1.28-2.048-1.729-4.288-1.537-6.656.064-.704 0-1.472 0-2.176-.127-.896-.064-1.792.064-2.752.192-1.28 0-2.624-.064-3.904-.127-1.024.192-1.856.448-2.752.192-.896.64-1.664.832-2.56.704.128 1.409.064 2.049-.256zm.767 25.344c.192-.384.385-.384.576-.512.32-.064.513-.192.577.128.128.32-.064.512-.32.576a1.97 1.97 0 01-.832-.192zM109.292 19.184c-1.984-.32-3.521.128-4.8 1.664-1.088 1.408-2.177 2.88-2.817 4.608-.127.32-.256.704-.704 1.024-.256-1.28-.512-2.496-.448-3.776.065-.832-.192-1.472-.831-1.984-.576-.448-1.216-.768-1.792-1.216-.385-.32-.96-.512-1.537-.256-.32.128-.64.064-.96 0-.832-.128-.896-.128-.896.768V31.28c0 2.944.064 5.824.064 8.768-.064 1.6.385 3.072.897 4.544.191.512.32 1.024.895 1.28.129-.256-.064-.576.257-.768.383.192.575.64.767.96.64 1.024 1.344 1.152 2.24.512.193-.128.384-.32.704-.448.768-.192 1.024-.448 1.024-1.152-.127-2.88.128-5.824.32-8.704.065-.768.065-1.536 0-2.304-.192-1.856-.255-3.712.385-5.632 1.087-3.008 2.687-4.928 4.991-7.104.832-.832 1.537-.32 1.664.576.128.896.257 1.344.065 2.24-.704 3.2-.769 6.144-.769 9.408-.064 2.112-.063 4.16.065 6.272.064 1.856.447 3.712 1.472 5.376.895 1.6 2.496 2.304 4.288 2.176.768-.064 1.215-.448 1.663-.768 1.024-.32 1.344-.448 2.049-1.152.895-.448 1.407-.704 1.919-1.536.705-1.152 1.793-1.856 2.881-2.432.96-.448 1.28-1.856 1.6-2.688-.257-.192-.384-.128-.576 0-2.24 1.536-4.032 2.624-6.272 4.16-.512.384-2.369-.32-2.496-.96-.256-1.088-.704-2.176-.64-3.328.063-1.472-.128-3.008 0-4.544.255-3.008.255-6.08.255-9.152-.064-1.472-.831-2.624-1.151-3.904l-.256-.256c-1.152-.512-2.112-1.344-3.52-1.536z" fill="#000"/><path d="M126.897 18.928c-.832.384-1.792.576-2.688.768-1.152.192-2.24.192-3.264.96a1.217 1.217 0 01-.704.448c-1.728.384-2.368 1.664-2.816 3.136-.64 1.92-.32 4.288 1.088 5.888 1.344 1.344 3.008 2.88 4.032 4.48 1.088 1.664 1.408 4.032 1.216 5.568-.128.832-.768 1.472-1.472 2.112-.64.192-1.92.192-2.688-.256-1.216-.192-1.856-.832-2.432-1.088-.64-.256-1.728-1.408-1.472-.512.512.576 1.664 1.28 1.728 1.856.064.448-.832-.448-1.344-.512-.192 0-.128.128-.384.064-.512-.128.448.576.512.896.064.192-.832-.384-.256.576.512.768-.064.704 1.664 1.728 1.856 1.024 1.536.704 1.216.768-.512.128 1.216.512 1.92.704 1.024.32 2.688.384 3.328.128.192-.064.512-.128.768-.256 1.28-.576 3.648-1.088 4.608-2.944.704-1.28 1.6-2.56 1.92-3.712.32-1.728-.448-5.568-1.344-7.104-.64-1.088-2.176-2.88-3.584-3.968-.64-.448-2.496-2.24-2.624-2.944 0-.384 0-.832-.064-1.152-.32-1.216.96-1.408 1.472-2.176.384-.576 1.152-.704 1.856-.896a1.94 1.94 0 00.64-.32c.896-.384 1.664-.96 1.216-.96-1.216 0 .768-1.152.512-1.152-.896 0-1.792-.512-2.56-.128zm-6.144 10.88l1.152 1.024 1.6 2.048c.448.576.704.832.704.832.128.256 0 .576 0 .832-.32 0-.704-.512-1.024-.832l-1.216-1.856c-.256-.448-1.664-2.112-1.216-2.048z" fill="#000"/><path d="M135.341 6.128c-.767.448-.96 1.024-.896 1.856.128.96.192 1.92-.256 2.944-.447-.704-.192-2.368-.64-2.048-.192 1.024-.447 1.984-.32 2.944.065.704.065 1.408 0 2.112 0 .448.064.512-.384.512-1.407.128-3.584.64-4.928.768 0 1.472.384 1.536 1.729 1.536.767-.064 2.111-.448 3.071-.128-.767.064-1.919.448-2.559.512 0 .384 2.367.32 3.264.128.255.512.127.96.127 1.344-.127 2.624-.255 5.184-.447 7.808-.192 3.136 0 6.336-.065 9.472 0 1.856 0 3.712.256 5.568.256 1.472.832 2.688 1.664 3.84.128.192.193.32.449.192.448-.192.512.128.64.448.255.512.447 1.024.703 1.536.128.192.32.512.512.32.448-.384.768-.064 1.152-.064 1.857.128 2.752.064 4.096-1.024.256-.192.641-.384.897-.448 1.024-.384 1.087-.704 2.047-1.344.768-.512 1.088-1.28 2.048-1.856 1.024-.576 1.28-1.984.769-1.984-.832 0-2.369 1.28-4.161 2.176l-1.28.64c-.255.128-.447.128-.64-.064-.703-.512-1.343-1.088-1.472-2.048-.128-1.344-.32-2.688-.384-4.032-.192-2.304-.64-4.544-.576-6.912.128-1.92-.064-3.904-.192-5.888-.128-2.304-.511-4.544-.575-6.912-.065-.96-.001-1.152.959-1.024.512.064 1.792-.192 2.112-.256.832-.128 1.6 0 2.048-.064 1.409-.256 3.392-.256 4.288-1.216-.32-.32-1.599-.512-1.152-.704 1.152-.512-1.024-1.024-1.792-1.024-.512 0-2.687.448-2.687.256 1.408-.384-1.024-.064-1.472 0-.704.192-1.217.064-2.561.192-.255-1.408-.448-2.944-.832-4.224-.448-1.472-1.023-3.008-2.56-3.84zm3.264 35.264c.256 0 .896 1.664 1.6 2.368.832.832-.64.384-.832-.064-.064-.192-.383-.128-.383-.384 0-.128-.512-1.92-.385-1.92z" fill="#000"/><path d="M148.915 18.992c-.192-.128-.448-.192-.576 0-.384.512-1.024.448-1.536.832 0 .512.192 1.088-.384 1.408-.192-.128-.191-.512-.511-.384-.321.064-.321.384-.193.576.321 1.216.384 2.432.32 3.712 0 .704-.127 1.408-.127 2.112.063 1.6.063 3.2-.193 4.8-.128 1.216-.192 2.368-.064 3.584.256 2.752.512 5.44.384 8.128 0 1.856.576 3.392 1.856 4.672h.256c.064-.192-.192-.384.064-.576.32-.064.576.512 1.024.064.96-.96 1.664-.896 2.496.128.32-.32 1.216-2.368 1.216-2.944 0-1.088.064-2.112 0-3.2-.064-2.496-.32-4.992-.384-7.552 0-1.152-.064-2.368-.127-3.52-.064-.704.063-1.216.447-1.664.512-.704.384-1.408.704-2.176.896-1.92 2.176-2.944 4.032-3.648l.384-.32c.321-.704 1.024-.384 1.472-.896.256-.32.513-.32.961-.128.511.256 1.087.192 1.407-.448a5.208 5.208 0 00-2.816-1.792c-1.856-.448-3.263-.192-4.864 1.024-.832.64-1.6 1.344-2.432 1.984-.064-.128-.127-.192-.127-.256a1.189 1.189 0 01-.129-.448c-.064-1.728-1.343-2.368-2.56-3.072zm10.432 3.648c-.448.256-.704.576-1.088.64l-.384.32c-.256.256-.704.32-.896.832.704-.064 1.216-.384 1.664-.768.768-.448 1.536-.576 2.56-.192 0 .064.128 0 .192-.064-.64-1.024-1.024-1.152-2.048-.768z" fill="#000"/><path d="M163.583.752c-1.152.192-2.112.704-2.752 1.6-1.472 2.048-1.152 3.712.96 4.8.576.256 1.28-.128 1.728.32 1.024.192 1.472-.704 2.112-1.152 1.408-1.152 1.024-2.304-.32-3.52-.512-.448-.768-.64-.704-1.216 0-.704-.256-.896-1.024-.832zm.448 18.368c-.768.064-1.536.32-2.112.832-.32.32-.832.768-.768 1.216.32 1.344-.128 2.624 0 3.904.128 1.792 0 3.584-.192 5.376-.192 2.048-.256 4.16-.32 6.208-.064 1.728-.128 3.456.064 5.12.192 1.28.256 2.56 1.216 3.584.256.192.704.128 1.024.384.576.512 1.344.576 1.856.832.32.192.896.384 1.152.32.256-.064.384-.32.64-.448.192 0 .384.064.576.064.32 0 .64-.064.896-.192l1.216-.384c.384-.128.832-.256 1.152-.512.256-.192.448-.512.704-.832.32-.32.768-.384 1.152-.704.32-.256.768-.768 1.152-.768.576-.064.832-.128 1.152-.704.64-1.024 1.152-1.408 2.048-2.112.576-.448 1.088-.896 1.536-1.536-.832-.64-1.472-.192-2.048.256-.256.256-.576.448-.96.64-.64.192-1.856 1.152-2.432 1.536-1.728 1.216-1.984 1.152-3.328 1.792-1.216.512-.896-.448-1.024-1.728-.064-1.152-.256-2.304-.32-3.456-.192-1.664-.384-3.264-.448-4.928-.064-2.688 0-5.376-.32-8.064-.128-.64-.128-1.28.064-1.92.128-.32.128-.64.064-.96 0-.832-.192-.896-.896-.384-.192-.128-.192-.384-.256-.576-.32-1.28-.896-1.856-2.24-1.856z" fill="#000"/><path d="M186.854 19.184c-1.984-.32-3.52.128-4.8 1.664-1.088 1.408-2.176 2.88-2.816 4.608-.128.32-.256.704-.704 1.024-.256-1.28-.512-2.496-.448-3.776.064-.832-.192-1.472-.832-1.984-.576-.448-1.216-.768-1.792-1.216-.384-.32-.96-.512-1.536-.256-.32.128-.64.064-.96 0-.832-.128-.896-.128-.896.768V31.28c0 2.944.064 5.824.064 8.768-.064 1.6.384 3.072.896 4.544.192.512.32 1.024.896 1.28.128-.256-.064-.576.256-.768.384.192.576.64.768.96.64 1.024 1.344 1.152 2.24.512.192-.128.384-.32.704-.448.768-.192 1.024-.448 1.024-1.152-.128-2.88.128-5.824.32-8.704.064-.768.064-1.536 0-2.304-.192-1.856-.256-3.712.384-5.632 1.088-3.008 2.688-4.928 4.992-7.104.832-.832 1.536-.32 1.664.576.128.896.256 1.344.064 2.24-.704 3.2-.768 6.144-.768 9.408-.064 2.112-.064 4.16.064 6.272.064 1.856.448 3.712 1.472 5.376.896 1.6 2.496 2.304 4.288 2.176.768-.064 1.216-.448 1.664-.768 1.024-.32 1.344-.448 2.048-1.152.896-.448 1.408-.704 1.92-1.536.704-1.152 1.792-1.856 2.88-2.432.96-.448 1.28-1.856 1.6-2.688-.256-.192-.384-.128-.576 0-2.24 1.536-4.032 2.624-6.272 4.16-.512.384-2.368-.32-2.496-.96-.256-1.088-.704-2.176-.64-3.328.064-1.472-.128-3.008 0-4.544.256-3.008.256-6.08.256-9.152-.064-1.472-.832-2.624-1.152-3.904l-.256-.256c-1.152-.512-2.112-1.344-3.52-1.536z" fill="#000"/><path d="M200.316 19.888c-.256.064-.64.256-.768.128-.832-.576-1.152.064-1.6.512-.896.896-1.408 2.048-1.92 3.136-1.728 4.224-2.56 8.576-1.856 13.12a18.518 18.518 0 002.112 6.336c.256.512.576.96 1.088 1.216.768.32 1.472.832 2.24 1.216.768.448 1.728.832 2.624.512l1.728-.768c.512-.256 1.088-.576 1.344-1.088.384-.896 1.088-1.472 1.472-2.304.192-.448.576-.704 1.024-.96.128.576.256 1.088.256 1.6.064.704.32 1.472.128 2.112-.192.704-1.152.832-1.728 1.344-.768.64-1.536 1.344-2.432 1.92-.768.576-1.792.896-2.496 1.6-1.408 1.536-2.944 2.944-4.032 4.8-.768 1.216-1.408 2.56-1.088 4.16.128.832.192 1.664.512 2.432.448.96 1.024 1.856 2.304 1.984.256 0 .512.128.704.384.768 1.28 1.088 1.344 2.368.896 1.152-.384 2.24-.96 3.328-1.472.576-.32 1.152-.768 1.728-.768.768 0 1.216-.448 1.664-.96 1.6-1.536 2.624-3.456 3.52-5.504.768-1.792 1.216-3.584 1.088-5.568 0-.384 0-.768.128-1.088.512-1.088.512-2.176.128-3.264-.256-.576 0-1.024.384-1.408.256-.256.576-.576 1.024-.768.384-.256.768-.448 1.792-1.28 1.024-.768.896-.704 1.856-1.472 1.088-.832 1.92-1.664 2.368-2.944-.96 0-1.024 0-1.408.256-2.432 1.856-3.52 2.56-4.928 3.264-.256.128-.384.512-.768.448-.256-.512-.256-1.024-.256-1.536 0-1.664.064-3.264-.128-4.928-.192-2.752-.256-5.504-.448-8.256l-.192-3.392c-.128-1.28-1.088-1.856-1.92-2.432-.384.192-.064.704-.576.704l-.384-.384c-.64-.64-1.408-1.152-2.24-1.408-.832-.256-1.088.064-.96.96.256 1.28.064 2.56 0 3.904-.192-.064-.32-.128-.384-.128-.064-.192-.128-.384-.128-.576-.256-1.792-1.28-2.88-2.944-3.392-.256-.128-.576-.192-.768-.384-.768-.704-1.6-.768-2.56-.512zm2.496 3.2c.64.256 1.088.704 1.28 1.408.448 1.728 1.6 3.136 2.24 4.736.192.576.256 1.152.896 1.472.256.128.256.576.256.896l.192 5.888c.064.512-.064.896-.448 1.28a13.086 13.086 0 01-3.072 2.56c-1.088.768-1.344.64-2.048-.512-.448-.704-.448-1.408-.448-2.176 0-.256 0-.512-.32-.576-.256 0-.384.192-.512.448-.128.384-.128.768-.128 1.152 0 .512.064 1.024.064 1.536-.704-.832-.768-1.856-.704-2.816 0-.512.128-1.088.576-1.6.512-.704.704-1.6.64-2.496-.128-1.024.064-1.984.128-3.008.128-1.536.064-3.136-.128-4.672-.192-1.088.192-2.112.448-3.136.192-.64.512-.64 1.088-.384zm5.632 25.216c-.192 1.664.128 3.136-.32 4.672-.384 1.28-1.088 2.368-1.984 3.328-.896 1.024-1.792 2.048-2.496 3.2-.32.576-.768 1.024-1.152 1.536-.128.128-.256.192-.384.256-1.024.384-3.072-.384-3.584-1.28-.64-1.088-.704-2.048-.064-3.2.704-1.088 1.216-2.24 2.176-3.136 1.088-.96 2.048-2.176 3.456-2.816.192-.128.448-.32.64-.512.064-.064.128-.256.192-.256 1.088-.256 1.792-1.088 2.688-1.6.192-.128.448-.128.832-.192z" fill="#000"/><path d="M225.822 18.928c-.832.384-1.792.576-2.688.768-1.152.192-2.24.192-3.264.96a1.217 1.217 0 01-.704.448c-1.728.384-2.368 1.664-2.816 3.136-.64 1.92-.32 4.288 1.088 5.888 1.344 1.344 3.008 2.88 4.032 4.48 1.088 1.664 1.408 4.032 1.216 5.568-.128.832-.768 1.472-1.472 2.112-.64.192-1.92.192-2.688-.256-1.216-.192-1.856-.832-2.432-1.088-.64-.256-1.728-1.408-1.472-.512.512.576 1.664 1.28 1.728 1.856.064.448-.832-.448-1.344-.512-.192 0-.128.128-.384.064-.512-.128.448.576.512.896.064.192-.832-.384-.256.576.512.768-.064.704 1.664 1.728 1.856 1.024 1.536.704 1.216.768-.512.128 1.216.512 1.92.704 1.024.32 2.688.384 3.328.128.192-.064.512-.128.768-.256 1.28-.576 3.648-1.088 4.608-2.944.704-1.28 1.6-2.56 1.92-3.712.32-1.728-.448-5.568-1.344-7.104-.64-1.088-2.176-2.88-3.584-3.968-.64-.448-2.496-2.24-2.624-2.944 0-.384 0-.832-.064-1.152-.32-1.216.96-1.408 1.472-2.176.384-.576 1.152-.704 1.856-.896a1.94 1.94 0 00.64-.32c.896-.384 1.664-.96 1.216-.96-1.216 0 .768-1.152.512-1.152-.896 0-1.792-.512-2.56-.128zm-6.144 10.88l1.152 1.024 1.6 2.048c.448.576.704.832.704.832.128.256 0 .576 0 .832-.32 0-.704-.512-1.024-.832l-1.216-1.856c-.256-.448-1.664-2.112-1.216-2.048z" fill="#000"/></svg>