<svg xmlns="http://www.w3.org/2000/svg" xmlns:xlink="http://www.w3.org/1999/xlink" width="231" height="77" fill="none" xmlns:v="https://vecta.io/nano"><g fill="#000"><path d="M28.54 55.63c.96.03 1.06 1.13.19 1.35-8.76 2.18-18.89-.01-27.96.84-.9.08-1.06-1.18-.19-1.31 8.91-1.26 18.95-1.16 27.96-.88zm24.38-.09c-3.24.13-8.06-.56-11.12.6-.12 0-.23.06-.31.13-.08.06-.11.15-.12.23v.08c0 .09.04.17.11.24.07.08.18.14.3.15 3.03 1.27 7.89.67 11.1.67 5.88-.01 12.3-.41 17.92-1.81.97-.24.9-1.57-.22-1.54-5.9.16-11.75 1.01-17.66 1.25zm44.7-2.29c-4.51.2-9.06.15-13.57-.04-1.22-.05-1.16 1.38-.03 1.52 7.9 1.03 17.72 1.61 25.46-.22 1.07-.25.82-1.43-.22-1.54-3.84-.41-7.78.11-11.64.28zm21.72.01c-1.05.06-1.1 1.29-.03 1.37 7.26.49 15.81.27 22.96-.83.91-.14.97-1.39.03-1.54-7.23-1.2-15.65.58-22.96 1zm38.66-.05c-1.18.04-1.22 1.45-.03 1.52 8.94.54 17.93.16 26.89.19 1.76.01 1.81-2.23.05-2.26-8.97-.2-17.98.24-26.91.55zM26.032 4.4c-.832-.192-1.536.128-2.304.256-2.112.384-4.032 1.216-5.632 2.688-.96.96-1.856 1.856-2.368 3.2-.704 1.856-.896 3.712-.896 5.632l-.064 3.392c-.064.896-.064.896-.96 1.024l-1.536.192c-.832.128-.96.32-.768 1.088.064.256.32.576 0 .832-.448.32-.512.704-.192 1.152.384.448.896.512 1.344.192.576-.384 1.152-.384 1.792-.384.192.512.128.896.128 1.28 0 .896-.128 1.792.064 2.624.448 2.496-.064 4.928-.192 7.296-.128 2.048-.064 4.032 0 6.016l.32 5.952c.064 1.408.32 2.688 1.024 3.904.384.576.768 1.088.96 1.728.192.512.576 1.088 1.152 1.152.64.064 1.152.32 1.664.896.64-1.408 1.472-3.008 1.216-4.544.32 0 .384 1.152.768 1.024 0-.064.256-.448.256-.512 0-3.84-.128-7.68-.192-11.52-.064-2.496-.32-4.992-.448-7.424-.192-2.88.192-5.76.192-8.64 0-.192.128-.576.64-.768.576-.256 1.152-.576 1.792-.576 1.536-.128 2.176-1.408 2.752-2.624-1.664-.192-3.072.896-4.736.576 0-1.088-.128-2.24.128-3.2.448-1.984.768-4.032 1.472-5.952.512-1.216 1.28-1.984 2.496-2.368.576-.192 1.216-.704 1.792-.832.512-.128-.192-1.024-.448-1.152-.64-.256-1.152-1.216-2.112-.512-.064.064-.192.064-.32.064-1.152-.064-2.176.384-3.136 1.024-.192.128-.384.384-.64.256.384-.448.64-1.024 1.216-1.28.256-.128.512-.32.896-.256 1.152.064 2.304-.256 3.456-.512-.192-.32-.384-.32-.576-.384z"/><path d="M44.377 19.504c-.576-.256-.704.448-1.152.576-1.216-.896-1.408-.896-2.752-.384-.512.192-.96.384-1.536.384-.448 0-.512.256-.512.576.32 2.24.064 4.416.064 6.592-.064 3.328.256 6.72.064 10.048 0 .448 0 .896-.32 1.216-.64.832-1.28 1.792-2.048 2.56-.64.64-2.048.96-2.496.512-.64-.576-1.28-1.28-1.216-2.176.064-.96-.064-1.92-.128-2.816-.064-1.408.192-3.072.128-4.48-.064-1.472.064-3.008.128-4.544.192-2.304.448-4.672-1.344-6.656-.576-.64-1.216-1.28-2.048-1.344-.896-.128-1.856.128-2.816.128-.768 0-.832.768-.768 1.472.256 1.984-.384 3.904-.384 5.952 0 1.92-.384 3.904.256 5.824.192.512.256 1.024.256 1.6-.32 3.008 0 5.952.768 8.896.128.576.32 1.088.768 1.472 1.024.896 2.112 1.6 3.584 1.856 1.536.256 2.88-.064 3.904-1.152a38.14 38.14 0 0 0 2.176-2.368c.384-.448.64-1.152 1.408-1.152.064.128.128.256.128.32.192 1.856.704 2.24 1.216 2.88.448.512.896.832 1.408 1.088 1.088.448 1.792.512 2.88 1.024.64 0 1.856.128 2.432-.448.512-.512.192-.256.832-.576.64-.256 1.28-.448 1.664-1.088.128-.192.32-.192.512-.192.384 0 .896-.512 1.216-.704 1.28-1.472 1.792-.704 3.136-2.304.448-.576 1.408-1.024.896-2.048-.576 0-1.024.32-1.408.576-2.432 1.6-3.456 2.112-5.824 3.84-.32.256-.448.192-.704.256-1.152.576-1.728-.32-1.728-1.792s.128-3.008.064-4.48c-.064-2.496.128-4.928.064-7.424 0-.576-.128-1.216.064-1.792.32-1.088.128-2.112-.064-3.2-.128-.64-.256-1.216-.32-1.856-.192-1.152-.064-2.304-.128-3.456 0-.448.128-1.024-.32-1.216zm-11.84 24.96c-.512.384-.96.704-1.792.448.96-.832.96-.832 1.792-.448z"/><use xlink:href="#B"/><use xlink:href="#C"/><path d="M81.236 18.736c-.448.256-.896.576-1.408.768-2.368.96-3.584 2.816-4.416 5.184-.704 2.24-1.28 4.544-1.28 6.912-.128 2.496-.256 4.928.32 7.424.512 1.856 1.408 3.52 2.752 4.8 1.152 1.024 2.432 1.984 3.776 2.752.896.512 1.728.512 2.56.064 1.024-.512 2.176-.832 3.2-1.472.256-.128.64-.384 1.024-.192-.128.576-1.664.512-.64 1.6.832-.32 1.728-.512 2.24-1.344l1.792-3.136c.704-1.216 1.216-2.432 1.152-3.904 0-.512.128-1.152.384-1.6.704-1.152.512-2.368.384-3.584-.192-1.344-.512-2.688-.512-4.032l-.256-1.92c-.384-1.152-.448-2.432-1.28-3.456-.768-.896-1.6-1.664-2.048-2.752 0-.128-.128-.256-.192-.256-1.472-.96-2.944-1.792-4.8-1.6-.128.064-.384 0-.384.192-.128 1.024-.768.576-1.28.512 0-.384.384-.576.384-.896-.512-.32-.96-.32-1.472-.064zm3.2 3.008c.64-.384 1.216-.128 1.792.32 1.088.832 1.6 2.048 1.664 3.392l.128 5.376-.448 7.872c-.192 1.728-.704 3.392-1.92 4.8-.128.32-.512.64-1.088.768-.256-.64-.448-1.344-1.344-1.024-.384.128-.448-.192-.576-.448-1.28-2.048-1.728-4.288-1.536-6.656.064-.704 0-1.472 0-2.176-.128-.896-.064-1.792.064-2.752.192-1.28 0-2.624-.064-3.904-.128-1.024.192-1.856.448-2.752.192-.896.64-1.664.832-2.56.704.128 1.408.064 2.048-.256zm.768 25.344c.192-.384.384-.384.576-.512.32-.064.512-.192.576.128.128.32-.064.512-.32.576a1.97 1.97 0 0 1-.832-.192zm24.088-27.904c-1.984-.32-3.521.128-4.8 1.664-1.088 1.408-2.177 2.88-2.817 4.608-.127.32-.256.704-.704 1.024-.256-1.28-.512-2.496-.448-3.776.065-.832-.192-1.472-.831-1.984-.576-.448-1.216-.768-1.792-1.216-.384-.32-.96-.512-1.536-.256-.32.128-.64.064-.96 0-.832-.128-.896-.128-.896.768V31.28l.064 8.768c-.064 1.6.384 3.072.896 4.544.192.512.32 1.024.896 1.28.128-.256-.064-.576.256-.768.384.192.576.64.768.96.64 1.024 1.344 1.152 2.24.512.192-.128.383-.32.704-.448.768-.192 1.024-.448 1.024-1.152-.127-2.88.128-5.824.32-8.704.065-.768.065-1.536 0-2.304-.192-1.856-.255-3.712.385-5.632 1.087-3.008 2.687-4.928 4.991-7.104.832-.832 1.537-.32 1.664.576s.257 1.344.065 2.24c-.704 3.2-.769 6.144-.769 9.408l.065 6.272c.064 1.856.447 3.712 1.472 5.376.895 1.6 2.496 2.304 4.288 2.176.768-.064 1.215-.448 1.663-.768 1.024-.32 1.344-.448 2.049-1.152.895-.448 1.407-.704 1.919-1.536.705-1.152 1.793-1.856 2.881-2.432.96-.448 1.28-1.856 1.6-2.688-.257-.192-.384-.128-.576 0l-6.272 4.16c-.512.384-2.369-.32-2.496-.96-.256-1.088-.704-2.176-.64-3.328v-4.544c.255-3.008.255-6.08.255-9.152-.064-1.472-.831-2.624-1.151-3.904l-.256-.256c-1.152-.512-2.112-1.344-3.52-1.536z"/><use xlink:href="#B" x="69.012"/><path d="M135.341 6.128c-.767.448-.96 1.024-.896 1.856.128.96.192 1.92-.256 2.944-.447-.704-.192-2.368-.64-2.048-.192 1.024-.447 1.984-.32 2.944a11.46 11.46 0 0 1 0 2.112c0 .448.064.512-.384.512-1.407.128-3.584.64-4.928.768 0 1.472.384 1.536 1.729 1.536.767-.064 2.111-.448 3.071-.128-.767.064-1.919.448-2.559.512 0 .384 2.367.32 3.264.128.255.512.127.96.127 1.344l-.447 7.808c-.192 3.136 0 6.336-.065 9.472l.256 5.568c.256 1.472.832 2.688 1.664 3.84.128.192.193.32.449.192.448-.192.512.128.64.448l.703 1.536c.128.192.32.512.512.32.448-.384.768-.064 1.152-.064 1.857.128 2.752.064 4.096-1.024.256-.192.641-.384.897-.448 1.024-.384 1.087-.704 2.047-1.344.768-.512 1.088-1.28 2.048-1.856 1.024-.576 1.28-1.984.769-1.984-.832 0-2.369 1.28-4.161 2.176l-1.28.64c-.255.128-.447.128-.64-.064-.703-.512-1.343-1.088-1.472-2.048l-.384-4.032c-.192-2.304-.64-4.544-.576-6.912.128-1.92-.064-3.904-.192-5.888l-.575-6.912c-.065-.96-.001-1.152.959-1.024.512.064 1.792-.192 2.112-.256.832-.128 1.6 0 2.048-.064 1.409-.256 3.392-.256 4.288-1.216-.32-.32-1.599-.512-1.152-.704 1.152-.512-1.024-1.024-1.792-1.024-.512 0-2.687.448-2.687.256 1.408-.384-1.024-.064-1.472 0-.704.192-1.217.064-2.561.192l-.832-4.224c-.448-1.472-1.023-3.008-2.56-3.84zm3.264 35.264c.256 0 .896 1.664 1.6 2.368.832.832-.64.384-.832-.064-.064-.192-.383-.128-.383-.384 0-.128-.512-1.92-.385-1.92z"/><path d="M148.915 18.992c-.192-.128-.448-.192-.576 0-.384.512-1.024.448-1.536.832 0 .512.192 1.088-.384 1.408-.192-.128-.191-.512-.511-.384-.321.064-.321.384-.193.576.321 1.216.384 2.432.32 3.712 0 .704-.127 1.408-.127 2.112.063 1.6.063 3.2-.193 4.8-.128 1.216-.192 2.368-.064 3.584l.384 8.128c0 1.856.576 3.392 1.856 4.672h.256c.064-.192-.192-.384.064-.576.32-.064.576.512 1.024.064.96-.96 1.664-.896 2.496.128.32-.32 1.216-2.368 1.216-2.944v-3.2l-.384-7.552-.127-3.52c-.064-.704.063-1.216.447-1.664.512-.704.384-1.408.704-2.176.896-1.92 2.176-2.944 4.032-3.648l.384-.32c.321-.704 1.024-.384 1.472-.896.256-.32.513-.32.961-.128.511.256 1.087.192 1.407-.448-.768-.96-1.792-1.536-2.816-1.792-1.856-.448-3.263-.192-4.864 1.024l-2.432 1.984c-.064-.128-.127-.192-.127-.256-.064-.128-.129-.32-.129-.448-.064-1.728-1.343-2.368-2.56-3.072zm10.432 3.648c-.448.256-.704.576-1.088.64l-.384.32c-.256.256-.704.32-.896.832.704-.064 1.216-.384 1.664-.768.768-.448 1.536-.576 2.56-.192 0 .064.128 0 .192-.064-.64-1.024-1.024-1.152-2.048-.768z"/><use xlink:href="#C" x="97.362"/><path d="M186.854 19.184c-1.984-.32-3.52.128-4.8 1.664-1.088 1.408-2.176 2.88-2.816 4.608-.128.32-.256.704-.704 1.024-.256-1.28-.512-2.496-.448-3.776.064-.832-.192-1.472-.832-1.984-.576-.448-1.216-.768-1.792-1.216-.384-.32-.96-.512-1.536-.256-.32.128-.64.064-.96 0-.832-.128-.896-.128-.896.768V31.28l.064 8.768c-.064 1.6.384 3.072.896 4.544.192.512.32 1.024.896 1.28.128-.256-.064-.576.256-.768.384.192.576.64.768.96.64 1.024 1.344 1.152 2.24.512.192-.128.384-.32.704-.448.768-.192 1.024-.448 1.024-1.152-.128-2.88.128-5.824.32-8.704a13.85 13.85 0 0 0 0-2.304c-.192-1.856-.256-3.712.384-5.632 1.088-3.008 2.688-4.928 4.992-7.104.832-.832 1.536-.32 1.664.576s.256 1.344.064 2.24c-.704 3.2-.768 6.144-.768 9.408l.064 6.272c.064 1.856.448 3.712 1.472 5.376.896 1.6 2.496 2.304 4.288 2.176.768-.064 1.216-.448 1.664-.768 1.024-.32 1.344-.448 2.048-1.152.896-.448 1.408-.704 1.92-1.536.704-1.152 1.792-1.856 2.88-2.432.96-.448 1.28-1.856 1.6-2.688-.256-.192-.384-.128-.576 0l-6.272 4.16c-.512.384-2.368-.32-2.496-.96-.256-1.088-.704-2.176-.64-3.328v-4.544c.256-3.008.256-6.08.256-9.152-.064-1.472-.832-2.624-1.152-3.904l-.256-.256c-1.152-.512-2.112-1.344-3.52-1.536z"/><path d="M200.316 19.888c-.256.064-.64.256-.768.128-.832-.576-1.152.064-1.6.512-.896.896-1.408 2.048-1.92 3.136-1.728 4.224-2.56 8.576-1.856 13.12a18.52 18.52 0 0 0 2.112 6.336c.256.512.576.96 1.088 1.216.768.32 1.472.832 2.24 1.216.768.448 1.728.832 2.624.512l1.728-.768c.512-.256 1.088-.576 1.344-1.088.384-.896 1.088-1.472 1.472-2.304.192-.448.576-.704 1.024-.96.128.576.256 1.088.256 1.6.064.704.32 1.472.128 2.112-.192.704-1.152.832-1.728 1.344-.768.64-1.536 1.344-2.432 1.92-.768.576-1.792.896-2.496 1.6-1.408 1.536-2.944 2.944-4.032 4.8-.768 1.216-1.408 2.56-1.088 4.16.128.832.192 1.664.512 2.432.448.96 1.024 1.856 2.304 1.984.256 0 .512.128.704.384.768 1.28 1.088 1.344 2.368.896 1.152-.384 2.24-.96 3.328-1.472.576-.32 1.152-.768 1.728-.768.768 0 1.216-.448 1.664-.96 1.6-1.536 2.624-3.456 3.52-5.504.768-1.792 1.216-3.584 1.088-5.568 0-.384 0-.768.128-1.088.512-1.088.512-2.176.128-3.264-.256-.576 0-1.024.384-1.408.256-.256.576-.576 1.024-.768.384-.256.768-.448 1.792-1.28 1.024-.768.896-.704 1.856-1.472 1.088-.832 1.92-1.664 2.368-2.944-.96 0-1.024 0-1.408.256-2.432 1.856-3.52 2.56-4.928 3.264-.256.128-.384.512-.768.448-.256-.512-.256-1.024-.256-1.536 0-1.664.064-3.264-.128-4.928l-.448-8.256-.192-3.392c-.128-1.28-1.088-1.856-1.92-2.432-.384.192-.064.704-.576.704l-.384-.384c-.64-.64-1.408-1.152-2.24-1.408s-1.088.064-.96.96c.256 1.28.064 2.56 0 3.904-.192-.064-.32-.128-.384-.128-.064-.192-.128-.384-.128-.576-.256-1.792-1.28-2.88-2.944-3.392-.256-.128-.576-.192-.768-.384-.768-.704-1.6-.768-2.56-.512zm2.496 3.2c.64.256 1.088.704 1.28 1.408.448 1.728 1.6 3.136 2.24 4.736.192.576.256 1.152.896 1.472.256.128.256.576.256.896l.192 5.888a1.4 1.4 0 0 1-.448 1.28c-.896 1.024-1.92 1.856-3.072 2.56-1.088.768-1.344.64-2.048-.512-.448-.704-.448-1.408-.448-2.176 0-.256 0-.512-.32-.576-.256 0-.384.192-.512.448-.128.384-.128.768-.128 1.152 0 .512.064 1.024.064 1.536-.704-.832-.768-1.856-.704-2.816 0-.512.128-1.088.576-1.6.512-.704.704-1.6.64-2.496-.128-1.024.064-1.984.128-3.008.128-1.536.064-3.136-.128-4.672-.192-1.088.192-2.112.448-3.136.192-.64.512-.64 1.088-.384zm5.632 25.216c-.192 1.664.128 3.136-.32 4.672-.384 1.28-1.088 2.368-1.984 3.328-.896 1.024-1.792 2.048-2.496 3.2-.32.576-.768 1.024-1.152 1.536-.128.128-.256.192-.384.256-1.024.384-3.072-.384-3.584-1.28-.64-1.088-.704-2.048-.064-3.2.704-1.088 1.216-2.24 2.176-3.136 1.088-.96 2.048-2.176 3.456-2.816.192-.128.448-.32.64-.512.064-.064.128-.256.192-.256 1.088-.256 1.792-1.088 2.688-1.6.192-.128.448-.128.832-.192z"/><use xlink:href="#B" x="167.937"/><path d="M42.992 54.52h6.696c.864 0 1.296.28 1.296.84 0 .544-.432.816-1.296.816h-2.64c-.032.208-.28 1.344-.744 3.408l-.912 4.08-.96 4.032-.408 1.176c-.224.64-.44.96-.648.96s-.432-.096-.672-.288c-.224-.208-.336-.4-.336-.576 0-.464.464-2.744 1.392-6.84l.12-.504c-1.584.56-3.296.984-5.136 1.272.576.576.864 1.264.864 2.064 0 1.264-.496 2.288-1.488 3.072-.992.768-2.256 1.152-3.792 1.152-1.52 0-2.728-.376-3.624-1.128-.896-.768-1.344-1.664-1.344-2.688 0-.416.088-.752.264-1.008s.392-.384.648-.384.44.088.552.264a.86.86 0 0 1 .192.552c0 1.792 1.088 2.688 3.264 2.688 1.024 0 1.848-.224 2.472-.672.624-.464.936-1.08.936-1.848s-.352-1.328-1.056-1.68c-.704.336-1.368.504-1.992.504-.336 0-.68-.176-1.032-.528-.336-.368-.504-.688-.504-.96 0-.512.6-.768 1.8-.768.448 0 .968.056 1.56.168.688-.464 1.24-1.008 1.656-1.632.432-.624.648-1.256.648-1.896 0-.96-.496-1.44-1.488-1.44-.4 0-.84.104-1.32.312-.464.208-.752.44-.864.696l-.192.48c-.08.192-.176.36-.288.504-.112.128-.264.192-.456.192s-.392-.12-.6-.36-.312-.472-.312-.696c0-.72.432-1.384 1.296-1.992.88-.624 1.8-.936 2.76-.936.976 0 1.736.28 2.28.84.544.544.816 1.336.816 2.376 0 1.024-.448 2.08-1.344 3.168 2.16-.512 3.912-1.152 5.256-1.92l.672-3.216h-1.992c-.864 0-1.296-.272-1.296-.816 0-.56.432-.84 1.296-.84zm14.377 0h5.736c.864 0 1.296.28 1.296.84 0 .544-.432.816-1.296.816h-2.808c-.096.912-.552 3.144-1.368 6.696l-1.56 6.144c-.224.544-.392.816-.504.816-.16 0-.376-.128-.648-.384-.272-.272-.408-.504-.408-.696s.056-.544.168-1.056l.984-4.488c-1.072.912-2.296 1.624-3.672 2.136-1.376.496-2.768.744-4.176.744-.448 0-.888-.2-1.32-.6-.416-.4-.624-.792-.624-1.176 0-.288.584-.808 1.752-1.56.464-.32.984-.744 1.56-1.272s1.04-1.064 1.392-1.608c-.912-.112-1.704-.504-2.376-1.176-.672-.688-1.008-1.488-1.008-2.4s.264-1.616.792-2.112c.544-.496 1.24-.744 2.088-.744a2.89 2.89 0 0 1 2.184.936c.608.624.912 1.416.912 2.376 0 1.408-.504 2.832-1.512 4.272-.992 1.424-2.304 2.6-3.936 3.528 1.648-.048 3.232-.448 4.752-1.2 1.536-.752 2.792-1.768 3.768-3.048l.768-4.128h-.936c-.88 0-1.32-.272-1.32-.816 0-.56.44-.84 1.32-.84zm-4.872 4.176c.24-.64.36-1.24.36-1.8s-.152-1.024-.456-1.392c-.288-.368-.624-.552-1.008-.552-.368 0-.664.112-.888.336s-.336.528-.336.912c0 .96.456 1.656 1.368 2.088.24.144.56.28.96.408zm8.36-4.176h7.584c.864 0 1.296.28 1.296.84 0 .544-.432.816-1.296.816h-2.808c-.128 1.2-.624 3.616-1.488 7.248l-.816 3.408-.24.96-.264.84-.192.624c-.16.384-.296.576-.408.576-.16 0-.384-.128-.672-.384-.272-.272-.408-.504-.408-.696s.064-.592.192-1.2l.552-2.424.528-2.496.432-2.232.792-4.224h-2.784c-.88 0-1.32-.272-1.32-.816 0-.56.44-.84 1.32-.84zm6.27 0h14.544c.864 0 1.296.28 1.296.84 0 .544-.432.816-1.296.816h-2.832c-.064.512-.328 1.776-.792 3.792l-.984 4.296-.456 2.088-.408 1.728c-.304 1.168-.544 1.752-.72 1.752s-.4-.112-.672-.336c-.256-.224-.384-.456-.384-.696s.368-2.264 1.104-6.072c-1.248-.352-2.576-.528-3.984-.528-2.448 0-3.672.688-3.672 2.064 0 1.184.392 2.12 1.176 2.808.32.288.64.544.96.768.336.224.616.448.84.672.224.208.336.432.336.672 0 .432-.272.648-.816.648-.848 0-1.792-.632-2.832-1.896s-1.56-2.584-1.56-3.96c0-1.152.472-2.008 1.416-2.568.944-.576 2.24-.864 3.888-.864s3.16.216 4.536.648l.528-2.64.504-2.376h-9.72c-.88 0-1.32-.272-1.32-.816 0-.56.44-.84 1.32-.84zm19.532 0c.864 0 1.296.28 1.296.84 0 .544-.432.816-1.296.816h-2.808c-.128 1.2-.624 3.616-1.488 7.248l-.816 3.408-.24.96-.264.84a5.68 5.68 0 0 1-.216.624c-.144.384-.272.576-.384.576-.16 0-.384-.128-.672-.384-.272-.272-.408-.504-.408-.696s.064-.592.192-1.2l.552-2.424.528-2.496.432-2.232.792-4.224h-2.784c-.88 0-1.32-.272-1.32-.816 0-.56.44-.84 1.32-.84h2.808c-.976-.912-1.992-2.176-3.048-3.792-1.04-1.632-1.56-2.84-1.56-3.624 0-.256.12-.384.36-.384.448 0 .984.256 1.608.768s.936.976.936 1.392c0 1.12.808 2.56 2.424 4.32l1.128 1.32h2.928zm6.263 0h15.576c.864 0 1.296.28 1.296.84 0 .544-.432.816-1.296.816h-2.76c-.08.624-.328 1.88-.744 3.768l-1.488 6.624-.312 1.32-.264.96c-.208.656-.384.984-.528.984-.16 0-.392-.12-.696-.36-.288-.24-.432-.48-.432-.72s.248-1.512.744-3.816a13.28 13.28 0 0 1-3.288 1.968c-1.2.512-2.352.768-3.456.768-.64 0-1.136-.16-1.488-.48s-.528-.712-.528-1.176.216-1.024.648-1.68c.64-.992 1.44-1.84 2.4-2.544-.784-.176-1.464-.464-2.04-.864-.56-.4-.84-.856-.84-1.368s.288-1.08.864-1.704c.592-.64 1.296-1.2 2.112-1.68h-3.48c-.864 0-1.296-.272-1.296-.816 0-.56.432-.84 1.296-.84zm7.464 1.656c.336.416.504.768.504 1.056 0 .272-.12.408-.36.408-.112 0-.328-.112-.648-.336-.304-.24-.592-.36-.864-.36-.56 0-1.344.336-2.352 1.008-.992.656-1.488 1.192-1.488 1.608 0 .272.328.52.984.744.672.224 1.368.36 2.088.408.416 0 .624.184.624.552 0 .16-.048.296-.144.408l-.168.216-.168.168-.192.144c-.032.032-.096.088-.192.168l-.216.168a13.38 13.38 0 0 0-1.896 1.776c-.56.624-.84 1.136-.84 1.536 0 .128.096.192.288.192 1.36 0 2.736-.472 4.128-1.416 1.408-.96 2.488-2.032 3.24-3.216l1.032-5.232h-3.36zm.899 16.488c0-.704-.408-1.056-1.224-1.056-.352 0-.664.096-.936.288-.272.208-.48.312-.624.312s-.336-.072-.576-.216-.36-.28-.36-.408c0-.288.288-.584.864-.888.56-.288 1.184-.432 1.872-.432s1.272.216 1.752.648c.464.432.696.984.696 1.656 0 1.072-.528 1.92-1.584 2.544s-2.392.936-4.008.936-3.104-.296-4.464-.888c-1.36-.576-2.04-1.104-2.04-1.584 0-.288.176-.432.528-.432.192 0 .544.12 1.056.36 1.536.736 3.216 1.104 5.04 1.104 1.216 0 2.192-.184 2.928-.552.72-.352 1.08-.816 1.08-1.392zm8.28-15.936l.024-.552h-3.552c-.88 0-1.32-.272-1.32-.816 0-.56.44-.84 1.32-.84h15.768c.864 0 1.296.28 1.296.84 0 .544-.432.816-1.296.816h-2.832c-.096.912-.352 2.248-.768 4.008l-.816 3.576-.336 1.512-.312 1.392-.336 1.272-.312.96c-.224.624-.424.936-.6.936-.192 0-.4-.096-.624-.288-.208-.208-.312-.416-.312-.624s.056-.616.168-1.224l.528-2.568.72-3.624c-1.04.256-2.72.552-5.04.888-.576 3.536-1.656 5.304-3.24 5.304-.8 0-1.552-.44-2.256-1.32s-1.056-1.704-1.056-2.472c0-.784.432-1.384 1.296-1.8.864-.432 2.088-.784 3.672-1.056l.216-4.32zm-1.92 9.36c.64 0 1.136-1.128 1.488-3.384-2.016.352-3.024.808-3.024 1.368 0 .4.176.84.528 1.32.368.464.704.696 1.008.696zm3.744-9.912v.192l-.216 4.368 5.112-.84.696-3.72h-5.592zm8.936-1.656h28.608c.864 0 1.296.28 1.296.84 0 .544-.432.816-1.296.816h-6.912c-.064.768-.384 2.44-.96 5.016 1.696-1.248 2.952-1.872 3.768-1.872s1.464.272 1.944.816a2.7 2.7 0 0 1 .744 1.92c0 .736-.264 1.576-.792 2.52-.512.928-1.072 1.696-1.68 2.304-.592.592-1.048.888-1.368.888-.176 0-.344-.048-.504-.144-.16-.112-.24-.248-.24-.408 0-.176.152-.44.456-.792l1.032-1.128c.368-.4.704-.928 1.008-1.584.32-.656.48-1.288.48-1.896 0-.624-.256-.936-.768-.936-.576 0-1.488.44-2.736 1.32l-1.896 1.416c-.704 3.184-1.256 5.088-1.656 5.712-.192.336-.392.504-.6.504a.69.69 0 0 1-.504-.216.83.83 0 0 1-.216-.576c0-.224.264-1.496.792-3.816-2.192 1.552-3.896 2.328-5.112 2.328-.528 0-1.064-.216-1.608-.648-.544-.448-.816-.928-.816-1.44s.16-1.136.48-1.872l-2.856 1.68c-.704 3.04-1.328 4.56-1.872 4.56a.72.72 0 0 1-.528-.216c-.128-.144-.192-.32-.192-.528 0-.224.184-1.16.552-2.808-1.936.848-3.504 1.272-4.704 1.272-.528 0-1.048-.216-1.56-.648-.512-.448-.768-.968-.768-1.56 0-.608.256-1.392.768-2.352s1.192-1.816 2.04-2.568c.848-.768 1.632-1.152 2.352-1.152a2.07 2.07 0 0 1 1.728.84c.448.544.792 1.224 1.032 2.04l1.104-5.976h-8.04c-.88 0-1.32-.272-1.32-.816 0-.56.44-.84 1.32-.84zm.84 10.704c0 .416.232.624.696.624 1.104 0 2.744-.544 4.92-1.632-.56-1.696-1.048-2.696-1.464-3a.89.89 0 0 0-.576-.216c-.624 0-1.376.56-2.256 1.68s-1.32 1.968-1.32 2.544zm15-4.488c-.64 0-1.4.592-2.28 1.776-.864 1.184-1.296 2.088-1.296 2.712 0 .432.256.648.768.648.704 0 1.488-.248 2.352-.744.864-.512 1.904-1.248 3.12-2.208v-.048c-.016-.016-.08-.096-.192-.24l-.216-.288c-.032-.048-.112-.144-.24-.288l-.24-.288a1.99 1.99 0 0 0-.264-.264 1.61 1.61 0 0 0-.288-.24c-.064-.064-.152-.136-.264-.216s-.216-.136-.312-.168c-.288-.096-.504-.144-.648-.144zm-.096-1.728c1.152 0 2.184.712 3.096 2.136l.456-2.52.456-2.448h-9.768c-.096 1.008-.568 3.32-1.416 6.936 1.6-.88 3.248-1.912 4.944-3.096.768-.672 1.512-1.008 2.232-1.008zm13.003-4.488h12.528c.864 0 1.296.28 1.296.84 0 .544-.432.816-1.296.816h-3.504a14.06 14.06 0 0 0-.288 2.856c0 .768-.256 1.152-.768 1.152h-.024c-.112 0-.36-.064-.744-.192-.368-.128-.76-.192-1.176-.192s-1.064.168-1.944.504-1.32.664-1.32.984c0 .128.2.248.6.36l1.488.36a13.64 13.64 0 0 1 1.752.504 3.63 3.63 0 0 1 1.488.96c.416.432.624.952.624 1.56 0 .944-.408 1.728-1.224 2.352-.8.608-1.856.912-3.168.912s-2.44-.328-3.384-.984c-.928-.656-1.392-1.432-1.392-2.328 0-.592.224-.888.672-.888s.776.272.984.816c.432 1.12 1.464 1.68 3.096 1.68.832 0 1.48-.152 1.944-.456.464-.32.696-.672.696-1.056 0-.4-.304-.712-.912-.936-.592-.24-1.336-.472-2.232-.696-.896-.24-1.512-.448-1.848-.624-.336-.192-.616-.472-.84-.84s-.336-.688-.336-.96c0-.64.64-1.296 1.92-1.968s2.416-1.008 3.408-1.008c.384 0 .736.088 1.056.264v-.384c0-.64.08-1.224.24-1.752h-7.392c-.864 0-1.296-.272-1.296-.816 0-.56.432-.84 1.296-.84zm2.16 14.976c.288 0 .584.32.888.96.32.64.48 1.152.48 1.536 0 .4-.16.6-.48.6-.24 0-.56-.256-.96-.768-.384-.512-.576-.904-.576-1.176 0-.256.072-.512.216-.768s.288-.384.432-.384z"/></g><defs ><path id="B" d="M57.885 18.928c-.832.384-1.792.576-2.688.768-1.152.192-2.24.192-3.264.96-.192.256-.448.384-.704.448-1.728.384-2.368 1.664-2.816 3.136-.64 1.92-.32 4.288 1.088 5.888 1.344 1.344 3.008 2.88 4.032 4.48 1.088 1.664 1.408 4.032 1.216 5.568-.128.832-.768 1.472-1.472 2.112-.64.192-1.92.192-2.688-.256-1.216-.192-1.856-.832-2.432-1.088-.64-.256-1.728-1.408-1.472-.512.512.576 1.664 1.28 1.728 1.856.064.448-.832-.448-1.344-.512-.192 0-.128.128-.384.064-.512-.128.448.576.512.896.064.192-.832-.384-.256.576.512.768-.064.704 1.664 1.728 1.856 1.024 1.536.704 1.216.768-.512.128 1.216.512 1.92.704 1.024.32 2.688.384 3.328.128.192-.064.512-.128.768-.256 1.28-.576 3.648-1.088 4.608-2.944.704-1.28 1.6-2.56 1.92-3.712.32-1.728-.448-5.568-1.344-7.104-.64-1.088-2.176-2.88-3.584-3.968-.64-.448-2.496-2.24-2.624-2.944 0-.384 0-.832-.064-1.152-.32-1.216.96-1.408 1.472-2.176.384-.576 1.152-.704 1.856-.896.256-.064.576-.256.64-.32.896-.384 1.664-.96 1.216-.96-1.216 0 .768-1.152.512-1.152-.896 0-1.792-.512-2.56-.128zm-6.144 10.88l1.152 1.024 1.6 2.048.704.832c.128.256 0 .576 0 .832-.32 0-.704-.512-1.024-.832l-1.216-1.856c-.256-.448-1.664-2.112-1.216-2.048z"/><path id="C" d="M66.221.752c-1.152.192-2.112.704-2.752 1.6-1.472 2.048-1.152 3.712.96 4.8.576.256 1.28-.128 1.728.32 1.024.192 1.472-.704 2.112-1.152 1.408-1.152 1.024-2.304-.32-3.52-.512-.448-.768-.64-.704-1.216 0-.704-.256-.896-1.024-.832zm.448 18.368c-.768.064-1.536.32-2.112.832-.32.32-.832.768-.768 1.216.32 1.344-.128 2.624 0 3.904.128 1.792 0 3.584-.192 5.376l-.32 6.208c-.064 1.728-.128 3.456.064 5.12.192 1.28.256 2.56 1.216 3.584.256.192.704.128 1.024.384.576.512 1.344.576 1.856.832.32.192.896.384 1.152.32s.384-.32.64-.448c.192 0 .384.064.576.064.32 0 .64-.064.896-.192l1.216-.384c.384-.128.832-.256 1.152-.512.256-.192.448-.512.704-.832.32-.32.768-.384 1.152-.704.32-.256.768-.768 1.152-.768.576-.064.832-.128 1.152-.704.64-1.024 1.152-1.408 2.048-2.112.576-.448 1.088-.896 1.536-1.536-.832-.64-1.472-.192-2.048.256-.256.256-.576.448-.96.64-.64.192-1.856 1.152-2.432 1.536-1.728 1.216-1.984 1.152-3.328 1.792-1.216.512-.896-.448-1.024-1.728l-.32-3.456-.448-4.928-.32-8.064c-.128-.64-.128-1.28.064-1.92.128-.32.128-.64.064-.96 0-.832-.192-.896-.896-.384-.192-.128-.192-.384-.256-.576-.32-1.28-.896-1.856-2.24-1.856z"/></defs></svg>