<?xml version="1.0" standalone="no"?>
<!DOCTYPE svg PUBLIC "-//W3C//DTD SVG 20010904//EN"
 "http://www.w3.org/TR/2001/REC-SVG-20010904/DTD/svg10.dtd">
<svg version="1.0" xmlns="http://www.w3.org/2000/svg"
 width="512.000000pt" height="512.000000pt" viewBox="0 0 512.000000 512.000000"
 preserveAspectRatio="xMidYMid meet">
<metadata>
Created by potrace 1.11, written by Peter Selinger 2001-2013
</metadata>
<g transform="translate(0.000000,512.000000) scale(0.100000,-0.100000)"
fill="#000000" stroke="none">
<path d="M2507 5096 c-32 -13 -83 -45 -115 -71 -153 -128 -375 -170 -573 -109
-68 21 -99 25 -164 22 -146 -7 -243 -77 -322 -233 -90 -175 -261 -307 -434
-334 -168 -27 -247 -68 -311 -162 -46 -67 -68 -148 -68 -254 0 -96 -17 -166
-65 -262 -50 -100 -112 -173 -208 -241 -98 -70 -149 -138 -173 -232 -22 -87
-13 -154 35 -260 48 -104 49 -107 61 -203 17 -138 -13 -282 -85 -398 -98 -159
-80 -337 46 -457 165 -157 179 -173 219 -255 58 -120 74 -191 67 -312 -9 -159
22 -256 108 -340 53 -51 104 -76 213 -103 111 -28 193 -73 279 -155 83 -79
121 -135 157 -231 43 -113 99 -176 198 -220 83 -38 139 -41 263 -16 111 23
182 23 285 -2 86 -20 202 -84 270 -148 36 -34 90 -74 120 -89 48 -23 67 -26
155 -26 89 0 106 3 152 27 28 14 77 48 109 74 105 85 225 124 386 124 77 0
113 -5 178 -26 65 -21 95 -25 158 -22 149 7 244 76 327 237 57 111 140 199
241 258 80 47 140 67 243 83 95 14 172 52 226 112 71 79 87 124 96 273 8 141
24 201 81 307 39 73 122 167 187 210 100 67 148 128 175 218 24 81 20 164 -10
235 -66 152 -76 189 -81 290 -7 127 18 237 78 340 59 102 72 151 67 243 -8
120 -30 158 -168 292 -95 93 -125 129 -153 186 -60 119 -71 171 -71 339 -1
140 -3 154 -27 206 -32 68 -88 131 -143 164 -23 13 -85 35 -138 49 -105 27
-137 41 -208 89 -112 77 -193 176 -236 289 -48 128 -113 201 -214 239 -79 30
-145 34 -225 13 -91 -25 -237 -24 -319 0 -96 28 -186 79 -264 149 -99 89 -145
110 -257 114 -78 3 -98 0 -148 -21z m303 -361 c694 -83 1301 -487 1650 -1096
141 -246 233 -527 270 -825 16 -131 14 -419 -5 -554 -101 -720 -559 -1352
-1210 -1671 -192 -94 -372 -152 -600 -194 -119 -22 -479 -31 -612 -16 -404 48
-795 211 -1121 469 -389 307 -679 780 -777 1265 -37 189 -48 321 -42 517 11
330 80 605 223 895 329 670 982 1130 1719 1213 124 14 378 13 505 -3z"/>
<path d="M2254 4714 c-141 -19 -357 -76 -494 -130 -584 -232 -1043 -702 -1255
-1287 -141 -391 -165 -847 -66 -1252 139 -567 502 -1059 1003 -1357 759 -452
1717 -397 2428 140 96 73 295 265 373 362 629 778 646 1875 44 2679 -346 462
-862 762 -1452 846 -127 18 -445 18 -581 -1z m462 -74 c925 -75 1695 -756
1879 -1663 141 -699 -82 -1414 -596 -1912 -335 -325 -743 -518 -1209 -575
-123 -15 -382 -12 -512 5 -629 83 -1201 463 -1524 1010 -353 600 -381 1341
-74 1970 374 769 1186 1233 2036 1165z"/>
<path d="M2395 4574 c-16 -2 -70 -9 -120 -15 -125 -15 -309 -63 -440 -114
-742 -286 -1239 -958 -1294 -1748 -24 -351 39 -680 194 -1004 211 -441 576
-793 1020 -983 763 -328 1639 -158 2226 431 671 674 780 1724 261 2519 -309
474 -795 793 -1352 890 -119 20 -417 35 -495 24z m-845 -740 c0 -40 -3 -46
-40 -69 -56 -35 -90 -15 -90 53 0 35 27 62 72 72 44 9 58 -4 58 -56z m739 18
c42 -6 118 -59 146 -102 11 -17 43 -44 72 -60 59 -33 99 -87 133 -175 28 -74
33 -228 8 -285 -21 -48 -173 -202 -228 -230 -31 -16 -72 -26 -134 -31 -85 -7
-93 -6 -142 19 -92 47 -134 163 -94 256 11 26 20 58 20 71 0 14 13 34 32 50
27 23 39 26 75 22 66 -7 93 -29 95 -80 2 -59 2 -69 -6 -98 -8 -27 13 -59 38
-59 19 0 114 65 136 93 27 34 26 98 -2 182 -27 85 -68 121 -171 154 -64 20
-88 23 -171 18 -77 -4 -106 -11 -148 -32 -100 -51 -108 -61 -123 -164 -15
-101 -12 -354 5 -476 14 -93 7 -173 -20 -225 -18 -36 -21 -52 -15 -102 l7 -59
117 1 c64 1 168 0 231 -2 104 -3 119 -1 159 20 98 52 157 48 230 -14 25 -21
31 -33 31 -67 0 -56 -35 -124 -88 -170 -38 -33 -50 -37 -97 -37 -67 0 -82 6
-100 40 -19 38 -115 74 -159 61 -80 -25 -117 -29 -196 -24 -67 4 -88 2 -97 -9
-9 -10 -10 -67 -4 -219 l8 -206 41 -54 c23 -31 43 -71 47 -94 4 -22 16 -59 26
-81 23 -52 43 -176 35 -219 -7 -35 -26 -47 -96 -61 -19 -4 -45 -13 -58 -22
-17 -11 -53 -15 -146 -15 -123 0 -124 0 -175 32 -52 34 -55 39 -66 124 -4 30
-2 47 4 47 7 0 11 27 11 68 1 86 13 142 50 217 16 33 44 103 62 155 29 83 33
108 33 197 0 56 -3 104 -7 108 -4 4 -32 -2 -63 -14 -67 -25 -77 -26 -121 -5
-67 32 -84 57 -84 124 0 51 4 65 24 85 44 44 112 51 188 20 13 -5 19 1 27 31
10 37 5 98 -18 222 -6 29 -8 73 -4 98 6 45 0 73 -37 189 -24 73 -25 157 -5
337 14 115 21 142 51 203 45 88 133 169 214 197 88 31 427 74 470 60 8 -3 30
-7 49 -10z m324 -33 c8 -13 6 -24 -6 -43 -15 -22 -20 -24 -45 -15 -42 16 -56
39 -35 61 21 23 71 21 86 -3z m370 -404 c30 -22 17 -55 -35 -87 -39 -24 -51
-27 -68 -18 -31 16 -25 56 12 91 35 32 63 36 91 14z m494 -125 c36 -7 92 -29
135 -53 71 -41 73 -44 121 -137 l48 -94 -4 -86 c-3 -47 -12 -117 -20 -156 -19
-86 -70 -191 -97 -199 -11 -4 -34 -18 -50 -32 -17 -14 -47 -27 -68 -30 -39 -5
-123 17 -151 40 -18 15 -61 111 -61 138 0 30 52 101 98 132 35 25 40 34 45 77
9 72 -29 155 -74 165 -103 23 -282 -47 -324 -126 -21 -39 -30 -202 -16 -271
11 -51 18 -62 59 -95 26 -21 49 -40 52 -43 14 -14 121 -79 160 -98 25 -11 79
-25 120 -30 99 -13 115 -20 182 -84 53 -50 58 -59 78 -138 47 -187 37 -319
-37 -468 -43 -88 -94 -135 -214 -199 -216 -116 -359 -132 -462 -54 -23 18 -72
52 -109 76 -75 49 -128 114 -128 155 0 15 -3 30 -6 33 -4 3 -8 37 -9 74 -3 84
25 190 66 254 29 46 30 47 92 51 70 5 118 -3 189 -34 44 -19 48 -24 48 -54 0
-24 -11 -45 -40 -79 -32 -37 -40 -54 -40 -86 0 -37 3 -41 43 -58 24 -10 47
-28 53 -41 13 -28 102 -60 169 -60 41 0 61 6 98 31 47 31 87 94 87 137 0 56
-82 202 -113 202 -4 0 -24 10 -45 23 -50 31 -138 65 -187 72 -36 6 -68 17
-171 61 -17 8 -48 32 -68 54 -20 22 -40 40 -45 40 -17 0 -50 56 -62 106 -7 27
-24 74 -39 104 l-27 55 18 155 c28 231 42 276 117 358 107 117 196 175 317
206 89 23 177 25 272 6z m411 -619 c8 -4 12 -19 10 -32 -4 -29 -48 -38 -68
-14 -11 13 -10 19 5 35 20 22 33 24 53 11z m-68 -176 c29 -35 -29 -101 -81
-93 -19 2 -25 10 -27 35 -3 28 1 34 35 52 46 24 57 25 73 6z m-1832 -258 c5
-25 -16 -47 -44 -47 -19 0 -24 5 -24 25 0 41 61 61 68 22z m-454 -78 c-10 -11
-23 -19 -31 -19 -17 0 -17 52 0 69 10 10 16 8 30 -10 16 -20 16 -23 1 -40z
m535 -233 c30 -32 22 -70 -20 -92 -30 -15 -32 -15 -57 8 -40 35 -42 39 -26 69
23 46 68 52 103 15z m1357 -98 c14 -45 -80 -97 -124 -69 -26 16 -9 54 38 81
49 30 73 26 86 -12z m-573 -360 c69 -45 69 -76 1 -98 -28 -10 -39 -9 -58 4
-34 22 -48 68 -30 95 19 27 44 27 87 -1z"/>
</g>
</svg>
