<svg width="134" height="31" viewBox="0 0 134 31" fill="none" xmlns="http://www.w3.org/2000/svg">
<path d="M13.992 8.52H20.688C21.552 8.52 21.984 8.8 21.984 9.36C21.984 9.904 21.552 10.176 20.688 10.176H18.048C18.016 10.384 17.768 11.52 17.304 13.584C16.84 15.648 16.536 17.008 16.392 17.664C15.896 19.904 15.576 21.248 15.432 21.696C15.288 22.144 15.152 22.536 15.024 22.872C14.8 23.512 14.584 23.832 14.376 23.832C14.168 23.832 13.944 23.736 13.704 23.544C13.48 23.336 13.368 23.144 13.368 22.968C13.368 22.504 13.832 20.224 14.76 16.128L14.88 15.624C13.296 16.184 11.584 16.608 9.744 16.896C10.32 17.472 10.608 18.16 10.608 18.96C10.608 20.224 10.112 21.248 9.12 22.032C8.128 22.8 6.864 23.184 5.328 23.184C3.808 23.184 2.6 22.808 1.704 22.056C0.808 21.288 0.36 20.392 0.36 19.368C0.36 18.952 0.448 18.616 0.624 18.36C0.8 18.104 1.016 17.976 1.272 17.976C1.528 17.976 1.712 18.064 1.824 18.24C1.952 18.4 2.016 18.584 2.016 18.792C2.016 20.584 3.104 21.48 5.28 21.48C6.304 21.48 7.128 21.256 7.752 20.808C8.376 20.344 8.688 19.728 8.688 18.96C8.688 18.192 8.336 17.632 7.632 17.28C6.928 17.616 6.264 17.784 5.64 17.784C5.304 17.784 4.96 17.608 4.608 17.256C4.272 16.888 4.104 16.568 4.104 16.296C4.104 15.784 4.704 15.528 5.904 15.528C6.352 15.528 6.872 15.584 7.464 15.696C8.152 15.232 8.704 14.688 9.12 14.064C9.552 13.44 9.768 12.808 9.768 12.168C9.768 11.208 9.272 10.728 8.28 10.728C7.88 10.728 7.44 10.832 6.96 11.04C6.496 11.248 6.208 11.48 6.096 11.736C6.048 11.848 5.984 12.008 5.904 12.216C5.824 12.408 5.728 12.576 5.616 12.72C5.504 12.848 5.352 12.912 5.16 12.912C4.968 12.912 4.768 12.792 4.56 12.552C4.352 12.312 4.248 12.08 4.248 11.856C4.248 11.136 4.68 10.472 5.544 9.864C6.424 9.24 7.344 8.928 8.304 8.928C9.28 8.928 10.04 9.208 10.584 9.768C11.128 10.312 11.4 11.104 11.4 12.144C11.4 13.168 10.952 14.224 10.056 15.312C12.216 14.8 13.968 14.16 15.312 13.392C15.568 12.112 15.792 11.04 15.984 10.176H13.992C13.128 10.176 12.696 9.904 12.696 9.36C12.696 8.8 13.128 8.52 13.992 8.52ZM28.3691 8.52H34.1051C34.9691 8.52 35.4011 8.8 35.4011 9.36C35.4011 9.904 34.9691 10.176 34.1051 10.176H31.2971C31.2011 11.088 30.7451 13.32 29.9291 16.872C29.1131 20.424 28.5931 22.472 28.3691 23.016C28.1451 23.56 27.9771 23.832 27.8651 23.832C27.7051 23.832 27.4891 23.704 27.2171 23.448C26.9451 23.176 26.8091 22.944 26.8091 22.752C26.8091 22.56 26.8651 22.208 26.9771 21.696C27.4571 19.536 27.7851 18.04 27.9611 17.208C26.8891 18.12 25.6651 18.832 24.2891 19.344C22.9131 19.84 21.5211 20.088 20.1131 20.088C19.6651 20.088 19.2251 19.888 18.7931 19.488C18.3771 19.088 18.1691 18.696 18.1691 18.312C18.1691 18.024 18.7531 17.504 19.9211 16.752C20.3851 16.432 20.9051 16.008 21.4811 15.48C22.0571 14.952 22.5211 14.416 22.8731 13.872C21.9611 13.76 21.1691 13.368 20.4971 12.696C19.8251 12.008 19.4891 11.208 19.4891 10.296C19.4891 9.384 19.7531 8.68 20.2811 8.184C20.8251 7.688 21.5211 7.44 22.3691 7.44C23.2331 7.44 23.9611 7.752 24.5531 8.376C25.1611 9 25.4651 9.792 25.4651 10.752C25.4651 12.16 24.9611 13.584 23.9531 15.024C22.9611 16.448 21.6491 17.624 20.0171 18.552C21.6651 18.504 23.2491 18.104 24.7691 17.352C26.3051 16.6 27.5611 15.584 28.5371 14.304C28.9211 12.256 29.1771 10.88 29.3051 10.176H28.3691C27.4891 10.176 27.0491 9.904 27.0491 9.36C27.0491 8.8 27.4891 8.52 28.3691 8.52ZM23.4971 12.696C23.7371 12.056 23.8571 11.456 23.8571 10.896C23.8571 10.336 23.7051 9.872 23.4011 9.504C23.1131 9.136 22.7771 8.952 22.3931 8.952C22.0251 8.952 21.7291 9.064 21.5051 9.288C21.2811 9.512 21.1691 9.816 21.1691 10.2C21.1691 11.16 21.6251 11.856 22.5371 12.288C22.7771 12.432 23.0971 12.568 23.4971 12.696ZM31.857 8.52H39.441C40.305 8.52 40.737 8.8 40.737 9.36C40.737 9.904 40.305 10.176 39.441 10.176H36.633C36.505 11.376 36.009 13.792 35.145 17.424C35.033 17.904 34.937 18.304 34.857 18.624C34.793 18.928 34.705 19.296 34.593 19.728C34.497 20.16 34.409 20.528 34.329 20.832C34.265 21.136 34.185 21.456 34.089 21.792C33.993 22.128 33.905 22.408 33.825 22.632C33.761 22.856 33.697 23.064 33.633 23.256C33.473 23.64 33.337 23.832 33.225 23.832C33.065 23.832 32.841 23.704 32.553 23.448C32.281 23.176 32.145 22.944 32.145 22.752C32.145 22.56 32.209 22.16 32.337 21.552C32.481 20.928 32.665 20.12 32.889 19.128C33.129 18.12 33.305 17.288 33.417 16.632C33.545 15.976 33.689 15.232 33.849 14.4C34.169 12.672 34.433 11.264 34.641 10.176H31.857C30.977 10.176 30.537 9.904 30.537 9.36C30.537 8.8 30.977 8.52 31.857 8.52ZM38.127 8.52H52.671C53.535 8.52 53.967 8.8 53.967 9.36C53.967 9.904 53.535 10.176 52.671 10.176H49.839C49.775 10.688 49.511 11.952 49.047 13.968C48.583 15.984 48.255 17.416 48.063 18.264C47.887 19.096 47.735 19.792 47.607 20.352C47.495 20.912 47.359 21.488 47.199 22.08C46.895 23.248 46.655 23.832 46.479 23.832C46.303 23.832 46.079 23.72 45.807 23.496C45.551 23.272 45.423 23.04 45.423 22.8C45.423 22.56 45.791 20.536 46.527 16.728C45.279 16.376 43.951 16.2 42.543 16.2C40.095 16.2 38.871 16.888 38.871 18.264C38.871 19.448 39.263 20.384 40.047 21.072C40.367 21.36 40.687 21.616 41.007 21.84C41.343 22.064 41.623 22.288 41.847 22.512C42.071 22.72 42.183 22.944 42.183 23.184C42.183 23.616 41.911 23.832 41.367 23.832C40.519 23.832 39.575 23.2 38.535 21.936C37.495 20.672 36.975 19.352 36.975 17.976C36.975 16.824 37.447 15.968 38.391 15.408C39.335 14.832 40.631 14.544 42.279 14.544C43.927 14.544 45.439 14.76 46.815 15.192C46.943 14.536 47.119 13.656 47.343 12.552C47.583 11.448 47.751 10.656 47.847 10.176H38.127C37.247 10.176 36.807 9.904 36.807 9.36C36.807 8.8 37.247 8.52 38.127 8.52ZM57.6587 8.52C58.5227 8.52 58.9547 8.8 58.9547 9.36C58.9547 9.904 58.5227 10.176 57.6587 10.176H54.8507C54.7227 11.376 54.2267 13.792 53.3627 17.424C53.2507 17.904 53.1547 18.304 53.0747 18.624C53.0107 18.928 52.9227 19.296 52.8107 19.728C52.7147 20.16 52.6267 20.528 52.5467 20.832C52.4827 21.136 52.4027 21.456 52.3067 21.792C52.2107 22.128 52.1227 22.408 52.0427 22.632C51.9787 22.856 51.9067 23.064 51.8267 23.256C51.6827 23.64 51.5547 23.832 51.4427 23.832C51.2827 23.832 51.0587 23.704 50.7707 23.448C50.4987 23.176 50.3627 22.944 50.3627 22.752C50.3627 22.56 50.4267 22.16 50.5547 21.552C50.6987 20.928 50.8827 20.12 51.1067 19.128C51.3467 18.12 51.5227 17.288 51.6347 16.632C51.7627 15.976 51.9067 15.232 52.0667 14.4C52.3867 12.672 52.6507 11.264 52.8587 10.176H50.0747C49.1947 10.176 48.7547 9.904 48.7547 9.36C48.7547 8.8 49.1947 8.52 50.0747 8.52H52.8827C51.9067 7.608 50.8907 6.344 49.8347 4.728C48.7947 3.096 48.2747 1.888 48.2747 1.104C48.2747 0.847999 48.3947 0.719999 48.6347 0.719999C49.0827 0.719999 49.6187 0.975999 50.2427 1.488C50.8667 2 51.1787 2.464 51.1787 2.88C51.1787 4 51.9867 5.44 53.6027 7.2C54.2427 7.888 54.6187 8.328 54.7307 8.52H57.6587ZM63.9214 8.52H79.4974C80.3614 8.52 80.7934 8.8 80.7934 9.36C80.7934 9.904 80.3614 10.176 79.4974 10.176H76.7374C76.6574 10.8 76.4094 12.056 75.9934 13.944C75.5774 15.816 75.2974 17.064 75.1534 17.688C75.0254 18.296 74.9134 18.792 74.8174 19.176C74.7374 19.56 74.6334 20.024 74.5054 20.568C74.3934 21.112 74.2894 21.552 74.1934 21.888C74.1134 22.208 74.0254 22.528 73.9294 22.848C73.7214 23.504 73.5454 23.832 73.4014 23.832C73.2414 23.832 73.0094 23.712 72.7054 23.472C72.4174 23.232 72.2734 22.992 72.2734 22.752C72.2734 22.512 72.5214 21.24 73.0174 18.936C72.0414 19.736 70.9454 20.392 69.7294 20.904C68.5294 21.416 67.3774 21.672 66.2734 21.672C65.6334 21.672 65.1374 21.512 64.7854 21.192C64.4334 20.872 64.2574 20.48 64.2574 20.016C64.2574 19.552 64.4734 18.992 64.9054 18.336C65.5454 17.344 66.3454 16.496 67.3054 15.792C66.5214 15.616 65.8414 15.328 65.2654 14.928C64.7054 14.528 64.4254 14.072 64.4254 13.56C64.4254 13.048 64.7134 12.48 65.2894 11.856C65.8814 11.216 66.5854 10.656 67.4014 10.176H63.9214C63.0574 10.176 62.6254 9.904 62.6254 9.36C62.6254 8.8 63.0574 8.52 63.9214 8.52ZM71.3854 10.176C71.7214 10.592 71.8894 10.944 71.8894 11.232C71.8894 11.504 71.7694 11.64 71.5294 11.64C71.4174 11.64 71.2014 11.528 70.8814 11.304C70.5774 11.064 70.2894 10.944 70.0174 10.944C69.4574 10.944 68.6734 11.28 67.6654 11.952C66.6734 12.608 66.1774 13.144 66.1774 13.56C66.1774 13.832 66.5054 14.08 67.1614 14.304C67.8334 14.528 68.5294 14.664 69.2494 14.712C69.6654 14.712 69.8734 14.896 69.8734 15.264C69.8734 15.424 69.8254 15.56 69.7294 15.672C69.6494 15.768 69.5934 15.84 69.5614 15.888C69.5294 15.92 69.4734 15.976 69.3934 16.056C69.3134 16.12 69.2494 16.168 69.2014 16.2C69.1694 16.232 69.1054 16.288 69.0094 16.368C68.9134 16.448 68.8414 16.504 68.7934 16.536C68.0894 17.08 67.4574 17.672 66.8974 18.312C66.3374 18.936 66.0574 19.448 66.0574 19.848C66.0574 19.976 66.1534 20.04 66.3454 20.04C67.7054 20.04 69.0814 19.568 70.4734 18.624C71.8814 17.664 72.9614 16.592 73.7134 15.408C74.0974 13.632 74.4414 11.888 74.7454 10.176H71.3854ZM72.2841 26.664C72.2841 25.96 71.8761 25.608 71.0601 25.608C70.7081 25.608 70.3961 25.704 70.1241 25.896C69.8521 26.104 69.6441 26.208 69.5001 26.208C69.3561 26.208 69.1641 26.136 68.9241 25.992C68.6841 25.848 68.5641 25.712 68.5641 25.584C68.5641 25.296 68.8521 25 69.4281 24.696C69.9881 24.408 70.6121 24.264 71.3001 24.264C71.9881 24.264 72.5721 24.48 73.0521 24.912C73.5161 25.344 73.7481 25.896 73.7481 26.568C73.7481 27.64 73.2201 28.488 72.1641 29.112C71.1081 29.736 69.7721 30.048 68.1561 30.048C66.5401 30.048 65.0521 29.752 63.6921 29.16C62.3321 28.584 61.6521 28.056 61.6521 27.576C61.6521 27.288 61.8281 27.144 62.1801 27.144C62.3721 27.144 62.7241 27.264 63.2361 27.504C64.7721 28.24 66.4521 28.608 68.2761 28.608C69.4921 28.608 70.4681 28.424 71.2041 28.056C71.9241 27.704 72.2841 27.24 72.2841 26.664ZM80.5641 10.728L80.5881 10.176H77.0361C76.1561 10.176 75.7161 9.904 75.7161 9.36C75.7161 8.8 76.1561 8.52 77.0361 8.52H92.8041C93.6681 8.52 94.1001 8.8 94.1001 9.36C94.1001 9.904 93.6681 10.176 92.8041 10.176H89.9721C89.8761 11.088 89.6201 12.424 89.2041 14.184C88.8041 15.944 88.5321 17.136 88.3881 17.76C88.2601 18.368 88.1481 18.872 88.0521 19.272C87.9721 19.672 87.8681 20.136 87.7401 20.664C87.6121 21.176 87.5001 21.6 87.4041 21.936C87.3081 22.272 87.2041 22.592 87.0921 22.896C86.8681 23.52 86.6681 23.832 86.4921 23.832C86.3001 23.832 86.0921 23.736 85.8681 23.544C85.6601 23.336 85.5561 23.128 85.5561 22.92C85.5561 22.712 85.6121 22.304 85.7241 21.696C85.8521 21.072 86.0281 20.216 86.2521 19.128C86.5401 17.752 86.7801 16.544 86.9721 15.504C85.9321 15.76 84.2521 16.056 81.9321 16.392C81.3561 19.928 80.2761 21.696 78.6921 21.696C77.8921 21.696 77.1401 21.256 76.4361 20.376C75.7321 19.496 75.3801 18.672 75.3801 17.904C75.3801 17.12 75.8121 16.52 76.6761 16.104C77.5401 15.672 78.7641 15.32 80.3481 15.048C80.4921 13.496 80.5641 12.056 80.5641 10.728ZM78.6441 20.088C79.2841 20.088 79.7801 18.96 80.1321 16.704C78.1161 17.056 77.1081 17.512 77.1081 18.072C77.1081 18.472 77.2841 18.912 77.6361 19.392C78.0041 19.856 78.3401 20.088 78.6441 20.088ZM82.3881 10.176V10.368C82.3881 11.904 82.3161 13.36 82.1721 14.736L87.2841 13.896C87.7001 11.672 87.9321 10.432 87.9801 10.176H82.3881ZM91.3243 8.52H119.932C120.796 8.52 121.228 8.8 121.228 9.36C121.228 9.904 120.796 10.176 119.932 10.176H113.02C112.956 10.944 112.636 12.616 112.06 15.192C113.756 13.944 115.012 13.32 115.828 13.32C116.644 13.32 117.292 13.592 117.772 14.136C118.268 14.664 118.516 15.304 118.516 16.056C118.516 16.792 118.252 17.632 117.724 18.576C117.212 19.504 116.652 20.272 116.044 20.88C115.452 21.472 114.996 21.768 114.676 21.768C114.5 21.768 114.332 21.72 114.172 21.624C114.012 21.512 113.932 21.376 113.932 21.216C113.932 21.04 114.084 20.776 114.388 20.424C114.708 20.056 115.052 19.68 115.42 19.296C115.788 18.896 116.124 18.368 116.428 17.712C116.748 17.056 116.908 16.424 116.908 15.816C116.908 15.192 116.652 14.88 116.14 14.88C115.564 14.88 114.652 15.32 113.404 16.2C113.004 16.488 112.372 16.96 111.508 17.616C110.804 20.8 110.252 22.704 109.852 23.328C109.66 23.664 109.46 23.832 109.252 23.832C109.06 23.832 108.892 23.76 108.748 23.616C108.604 23.456 108.532 23.264 108.532 23.04C108.532 22.816 108.796 21.544 109.324 19.224C107.132 20.776 105.428 21.552 104.212 21.552C103.684 21.552 103.148 21.336 102.604 20.904C102.06 20.456 101.788 19.976 101.788 19.464C101.788 18.952 101.948 18.328 102.268 17.592C101.228 18.248 100.276 18.808 99.4123 19.272C98.7083 22.312 98.0843 23.832 97.5403 23.832C97.3323 23.832 97.1563 23.76 97.0123 23.616C96.8843 23.472 96.8203 23.296 96.8203 23.088C96.8203 22.864 97.0043 21.928 97.3723 20.28C95.4363 21.128 93.8683 21.552 92.6683 21.552C92.1403 21.552 91.6203 21.336 91.1083 20.904C90.5963 20.456 90.3403 19.936 90.3403 19.344C90.3403 18.736 90.5963 17.952 91.1083 16.992C91.6203 16.032 92.3003 15.176 93.1483 14.424C93.9963 13.656 94.7803 13.272 95.5003 13.272C96.2203 13.272 96.7963 13.552 97.2283 14.112C97.6763 14.656 98.0203 15.336 98.2603 16.152C98.4683 15 98.8363 13.008 99.3643 10.176H91.3243C90.4443 10.176 90.0043 9.904 90.0043 9.36C90.0043 8.8 90.4443 8.52 91.3243 8.52ZM92.1643 19.224C92.1643 19.64 92.3963 19.848 92.8603 19.848C93.9643 19.848 95.6043 19.304 97.7803 18.216C97.2203 16.52 96.7323 15.52 96.3163 15.216C96.1403 15.072 95.9483 15 95.7403 15C95.1163 15 94.3643 15.56 93.4843 16.68C92.6043 17.8 92.1643 18.648 92.1643 19.224ZM107.164 14.736C106.524 14.736 105.764 15.328 104.884 16.512C104.02 17.696 103.588 18.6 103.588 19.224C103.588 19.656 103.844 19.872 104.356 19.872C105.06 19.872 105.844 19.624 106.708 19.128C107.572 18.616 108.612 17.88 109.828 16.92V16.872C109.812 16.856 109.748 16.776 109.636 16.632C109.524 16.472 109.452 16.376 109.42 16.344C109.388 16.296 109.308 16.2 109.18 16.056C109.068 15.912 108.988 15.816 108.94 15.768C108.892 15.704 108.804 15.616 108.676 15.504C108.564 15.392 108.468 15.312 108.388 15.264C108.324 15.2 108.236 15.128 108.124 15.048C108.012 14.968 107.908 14.912 107.812 14.88C107.524 14.784 107.308 14.736 107.164 14.736ZM107.068 13.008C108.22 13.008 109.252 13.72 110.164 15.144C110.276 14.568 110.428 13.728 110.62 12.624C110.828 11.504 110.98 10.688 111.076 10.176H101.308C101.212 11.184 100.74 13.496 99.8923 17.112C101.492 16.232 103.14 15.2 104.836 14.016C105.604 13.344 106.348 13.008 107.068 13.008ZM120.071 8.52H132.599C133.463 8.52 133.895 8.8 133.895 9.36C133.895 9.904 133.463 10.176 132.599 10.176H129.095C128.903 11.104 128.807 12.056 128.807 13.032C128.807 13.8 128.551 14.184 128.039 14.184H128.015C127.903 14.184 127.655 14.12 127.271 13.992C126.903 13.864 126.511 13.8 126.095 13.8C125.679 13.8 125.031 13.968 124.151 14.304C123.271 14.64 122.831 14.968 122.831 15.288C122.831 15.416 123.031 15.536 123.431 15.648C123.847 15.76 124.343 15.88 124.919 16.008C125.511 16.136 126.095 16.304 126.671 16.512C127.263 16.72 127.759 17.04 128.159 17.472C128.575 17.904 128.783 18.424 128.783 19.032C128.783 19.976 128.375 20.76 127.559 21.384C126.759 21.992 125.703 22.296 124.391 22.296C123.079 22.296 121.951 21.968 121.007 21.312C120.079 20.656 119.615 19.88 119.615 18.984C119.615 18.392 119.839 18.096 120.287 18.096C120.735 18.096 121.063 18.368 121.271 18.912C121.703 20.032 122.735 20.592 124.367 20.592C125.199 20.592 125.847 20.44 126.311 20.136C126.775 19.816 127.007 19.464 127.007 19.08C127.007 18.68 126.703 18.368 126.095 18.144C125.503 17.904 124.759 17.672 123.863 17.448C122.967 17.208 122.351 17 122.015 16.824C121.679 16.632 121.399 16.352 121.175 15.984C120.951 15.616 120.839 15.296 120.839 15.024C120.839 14.384 121.479 13.728 122.759 13.056C124.039 12.384 125.175 12.048 126.167 12.048C126.551 12.048 126.903 12.136 127.223 12.312V11.928C127.223 11.288 127.303 10.704 127.463 10.176H120.071C119.207 10.176 118.775 9.904 118.775 9.36C118.775 8.8 119.207 8.52 120.071 8.52ZM122.231 23.496C122.519 23.496 122.815 23.816 123.119 24.456C123.439 25.096 123.599 25.608 123.599 25.992C123.599 26.392 123.439 26.592 123.119 26.592C122.879 26.592 122.559 26.336 122.159 25.824C121.775 25.312 121.583 24.92 121.583 24.648C121.583 24.392 121.655 24.136 121.799 23.88C121.943 23.624 122.087 23.496 122.231 23.496Z" fill="black"/>
</svg>
